<svg width="180" height="180" viewBox="0 0 180 180" fill="none" xmlns="http://www.w3.org/2000/svg">
<rect width="180" height="180" fill="url(#paint0_linear_4_32)" fill-opacity="0.9"/>
<path d="M167.543 75.3633L180 81.3096L180 66.9258L167.543 72.872L167.543 75.3633ZM-1.28118e-07 75.3633L168.789 75.3633L168.789 72.872L1.28118e-07 72.872L-1.28118e-07 75.3633Z" fill="black" fill-opacity="0.8"/>
<path d="M120.285 27.4743C120.53 26.274 121.586 25.4118 122.811 25.4118V25.4118C124.452 25.4118 125.676 26.9251 125.332 28.53L104.118 127.53C103.912 128.49 103.063 129.176 102.081 129.176V129.176C100.763 129.176 99.776 127.968 100.04 126.677L120.285 27.4743Z" fill="#BF6060"/>
<path d="M30.0441 23.4064H38.0437L47.9701 53.3609L58.0426 23.4064H65.9254L73.1659 66.3529H65.2831L60.6702 39.2303L51.532 66.3529H44.3207L35.2993 39.2303L30.5988 66.3529H22.6285L30.0441 23.4064ZM80.2896 23.4064H88.9606C93.7098 23.4064 97.0867 23.8346 99.0915 24.691C101.116 25.5279 102.741 26.9293 103.967 28.8951C105.193 30.8609 105.806 33.1869 105.806 35.8728C105.806 38.6951 105.125 41.0599 103.763 42.9673C102.42 44.8553 100.386 46.2859 97.6609 47.2591L107.821 66.3529H98.8871L89.2234 48.1641H88.4643V66.3529H80.2896V23.4064ZM88.4643 40.1938H91.0335C93.6416 40.1938 95.4323 39.8532 96.4055 39.1719C97.3981 38.4907 97.8945 37.3618 97.8945 35.7853C97.8945 34.851 97.6512 34.0433 97.1646 33.362C96.678 32.6613 96.0259 32.165 95.2085 31.8731C94.391 31.5616 92.8923 31.4059 90.7124 31.4059H88.4643V40.1938Z" fill="black" fill-opacity="0.8"/>
<path d="M86.0251 96.0697C85.3564 88.7134 97.8717 85.2741 100.165 95.0188C100.165 105.719 100.356 163.614 100.356 163.614C97.4896 172.499 86.6939 168.964 85.8341 164.092C74.2741 168.678 71.8857 158.551 74.083 153.583C68.4813 150.613 67.0765 148.082 68.8285 141.45C60.7079 137.915 59.8481 128.266 66.1535 123.011C58.8927 118.139 63.0008 105.337 74.7518 106.292C74.026 98.1895 78.0001 93.8724 86.0251 96.0697Z" fill="#DFD4D4" stroke="#FF4E4E" stroke-width="1.71966"/>
<path d="M66.1535 123.011C70.1894 124.565 72.4096 125.658 77.809 124.253M68.8285 141.45C73.8482 139.325 76.6921 139.36 81.8215 141.832M74.083 153.583C77.8191 152.237 79.8032 152.424 83.159 154.347M85.8341 164.092C86.8507 159.182 87.9203 156.883 91.7574 154.538M93.7636 145.558C96.7919 144.637 98.1995 143.692 100.26 141.354M100.165 118.234C97.9073 123.562 95.8179 125.627 90.1332 127.119M86.0251 96.0697C88.9694 98.5449 89.7773 100.267 90.0377 103.808" stroke="#BF6060" stroke-width="1.71966"/>
<path d="M74.7518 106.292C77.0134 111.17 79.1954 112.945 84.6876 114.413" stroke="#BF6060" stroke-width="1.71966"/>
<path d="M118.508 96.0464C119.176 88.6901 106.661 85.2507 104.368 94.9955C104.368 105.696 104.177 163.591 104.177 163.591C107.043 172.476 117.839 168.941 118.699 164.069C130.259 168.654 132.647 158.527 130.45 153.56C136.052 150.589 137.456 148.059 135.704 141.426C143.825 137.892 144.685 128.242 138.379 122.988C145.64 118.115 141.532 105.313 129.781 106.269C130.507 98.1662 126.533 93.8491 118.508 96.0464Z" fill="#FF4E4E" stroke="#D9D9D9" stroke-width="1.71966"/>
<path d="M138.379 122.988C134.343 124.542 132.123 125.634 126.724 124.23M135.704 141.426C130.685 139.302 127.841 139.337 122.711 141.809M130.45 153.56C126.714 152.214 124.73 152.401 121.374 154.324M118.699 164.069C117.682 159.158 116.612 156.86 112.775 154.515M110.769 145.534C107.741 144.613 106.333 143.668 104.273 141.331M104.368 118.211C106.626 123.538 108.715 125.604 114.4 127.096M118.508 96.0464C115.563 98.5215 114.755 100.244 114.495 103.785" stroke="#D9D9D9" stroke-width="1.71966"/>
<path d="M129.781 106.269C127.519 111.146 125.337 112.922 119.845 114.389" stroke="#D9D9D9" stroke-width="1.71966"/>
<path d="M117.808 128C117.808 141.452 115.937 153.588 112.941 162.327C111.442 166.701 109.678 170.17 107.769 172.525C105.853 174.888 103.898 176.008 102 176.008C100.103 176.008 98.147 174.888 96.2311 172.525C94.3218 170.17 92.5584 166.701 91.0587 162.327C88.0626 153.588 86.1917 141.452 86.1917 128C86.1917 114.548 88.0626 102.412 91.0587 93.6734C92.5584 89.2992 94.3218 85.8305 96.2311 83.4751C98.147 81.1115 100.103 79.9917 102 79.9917C103.898 79.9917 105.853 81.1115 107.769 83.4751C109.678 85.8305 111.442 89.2992 112.941 93.6734C115.937 102.412 117.808 114.548 117.808 128Z" stroke="#5D347D" stroke-width="1.98333"/>
<path d="M90.8218 116.822C100.334 107.31 110.238 100.051 118.536 95.9908C122.689 93.9582 126.389 92.7523 129.405 92.4369C132.431 92.1204 134.605 92.7113 135.947 94.053C137.289 95.3947 137.88 97.5693 137.563 100.595C137.248 103.611 136.042 107.311 134.009 111.464C129.949 119.762 122.69 129.666 113.178 139.178C103.666 148.69 93.7618 155.949 85.4641 160.009C81.3106 162.042 77.611 163.248 74.5954 163.563C71.5693 163.88 69.3947 163.289 68.053 161.947C66.7112 160.605 66.1203 158.431 66.4369 155.405C66.7523 152.389 67.9582 148.689 69.9907 144.536C74.0513 136.238 81.31 126.334 90.8218 116.822Z" stroke="#5D347D" stroke-width="1.98333"/>
<path d="M102 112.192C115.452 112.192 127.588 114.063 136.327 117.059C140.701 118.558 144.17 120.322 146.525 122.231C148.888 124.147 150.008 126.102 150.008 128C150.008 129.898 148.888 131.853 146.525 133.769C144.17 135.678 140.701 137.442 136.327 138.941C127.588 141.937 115.452 143.808 102 143.808C88.5483 143.808 76.412 141.937 67.6734 138.941C63.2992 137.442 59.8305 135.678 57.4751 133.769C55.1115 131.853 53.9917 129.898 53.9917 128C53.9917 126.102 55.1115 124.147 57.4751 122.231C59.8305 120.322 63.2992 118.558 67.6734 117.059C76.412 114.063 88.5483 112.192 102 112.192Z" stroke="#5D347D" stroke-width="1.98333"/>
<path d="M113.178 116.822C122.69 126.334 129.949 136.238 134.009 144.536C136.042 148.689 137.248 152.389 137.563 155.405C137.88 158.431 137.289 160.605 135.947 161.947C134.605 163.289 132.431 163.88 129.405 163.563C126.389 163.248 122.689 162.042 118.536 160.009C110.238 155.949 100.334 148.69 90.8218 139.178C81.3101 129.666 74.0513 119.762 69.9907 111.464C67.9582 107.311 66.7523 103.611 66.4369 100.595C66.1204 97.5693 66.7112 95.3947 68.053 94.053C69.3947 92.7112 71.5693 92.1203 74.5954 92.4369C77.611 92.7523 81.3107 93.9582 85.4641 95.9907C93.7618 100.051 103.666 107.31 113.178 116.822Z" stroke="#5D347D" stroke-width="1.98333"/>
<path d="M110.8 128.8C110.8 133.771 106.771 137.8 101.8 137.8C96.8294 137.8 92.8 133.771 92.8 128.8C92.8 123.829 96.8294 119.8 101.8 119.8C106.771 119.8 110.8 123.829 110.8 128.8Z" fill="#5D347D"/>
<path d="M106.3 128.8C106.3 131.285 104.285 133.3 101.8 133.3C99.3147 133.3 97.3 131.285 97.3 128.8C97.3 126.315 99.3147 124.3 101.8 124.3C104.285 124.3 106.3 126.315 106.3 128.8Z" fill="#BF6060"/>
<defs>
<linearGradient id="paint0_linear_4_32" x1="90" y1="0" x2="90" y2="180" gradientUnits="userSpaceOnUse">
<stop stop-color="#1CF28C"/>
<stop offset="1" stop-color="#8C5CCA"/>
</linearGradient>
</defs>
</svg>
